<mxfile host="app.diagrams.net" modified="2023-12-03T19:16:10.151Z" agent="Mozilla/5.0 (Windows NT 10.0; Win64; x64) AppleWebKit/537.36 (KHTML, like Gecko) Chrome/119.0.0.0 Safari/537.36" etag="xFlP38lJX75hzqQea7Ym" version="22.1.5" type="device">
  <diagram name="Page-1" id="abBVN5bIlJFIel-Z-efZ">
    <mxGraphModel dx="1400" dy="789" grid="1" gridSize="10" guides="1" tooltips="1" connect="1" arrows="1" fold="1" page="1" pageScale="1" pageWidth="850" pageHeight="1100" math="0" shadow="0">
      <root>
        <mxCell id="0" />
        <mxCell id="1" parent="0" />
        <mxCell id="bwhybXAuOZe531-7vFfi-32" style="edgeStyle=orthogonalEdgeStyle;rounded=0;orthogonalLoop=1;jettySize=auto;html=1;" edge="1" parent="1" source="bwhybXAuOZe531-7vFfi-33">
          <mxGeometry relative="1" as="geometry">
            <mxPoint x="160" y="373" as="targetPoint" />
          </mxGeometry>
        </mxCell>
        <mxCell id="bwhybXAuOZe531-7vFfi-33" value="" style="ellipse;whiteSpace=wrap;html=1;aspect=fixed;strokeColor=none;fillColor=#000000;" vertex="1" parent="1">
          <mxGeometry x="90" y="358" width="30" height="30" as="geometry" />
        </mxCell>
        <mxCell id="bwhybXAuOZe531-7vFfi-34" value="" style="edgeStyle=orthogonalEdgeStyle;rounded=0;orthogonalLoop=1;jettySize=auto;html=1;" edge="1" parent="1" target="bwhybXAuOZe531-7vFfi-37">
          <mxGeometry relative="1" as="geometry">
            <mxPoint x="280" y="373" as="sourcePoint" />
          </mxGeometry>
        </mxCell>
        <mxCell id="bwhybXAuOZe531-7vFfi-60" style="edgeStyle=none;curved=1;rounded=0;orthogonalLoop=1;jettySize=auto;html=1;entryX=0.5;entryY=0;entryDx=0;entryDy=0;fontSize=12;startSize=8;endSize=8;" edge="1" parent="1" target="bwhybXAuOZe531-7vFfi-46">
          <mxGeometry relative="1" as="geometry">
            <mxPoint x="220" y="403" as="sourcePoint" />
          </mxGeometry>
        </mxCell>
        <mxCell id="bwhybXAuOZe531-7vFfi-37" value="Add Flight Info" style="whiteSpace=wrap;html=1;rounded=1;" vertex="1" parent="1">
          <mxGeometry x="320" y="343" width="120" height="60" as="geometry" />
        </mxCell>
        <mxCell id="bwhybXAuOZe531-7vFfi-43" value="" style="edgeStyle=orthogonalEdgeStyle;rounded=0;orthogonalLoop=1;jettySize=auto;html=1;" edge="1" parent="1" source="bwhybXAuOZe531-7vFfi-37" target="bwhybXAuOZe531-7vFfi-44">
          <mxGeometry relative="1" as="geometry">
            <mxPoint x="430" y="373" as="sourcePoint" />
            <mxPoint x="630" y="373" as="targetPoint" />
          </mxGeometry>
        </mxCell>
        <mxCell id="bwhybXAuOZe531-7vFfi-44" value="Add Flight Destination" style="whiteSpace=wrap;html=1;rounded=1;" vertex="1" parent="1">
          <mxGeometry x="480" y="343" width="120" height="60" as="geometry" />
        </mxCell>
        <mxCell id="bwhybXAuOZe531-7vFfi-71" style="edgeStyle=none;curved=1;rounded=0;orthogonalLoop=1;jettySize=auto;html=1;fontSize=12;startSize=8;endSize=8;" edge="1" parent="1" source="bwhybXAuOZe531-7vFfi-46" target="bwhybXAuOZe531-7vFfi-61">
          <mxGeometry relative="1" as="geometry" />
        </mxCell>
        <mxCell id="bwhybXAuOZe531-7vFfi-46" value="Delete Flight Info" style="whiteSpace=wrap;html=1;rounded=1;" vertex="1" parent="1">
          <mxGeometry x="160" y="470" width="120" height="60" as="geometry" />
        </mxCell>
        <mxCell id="bwhybXAuOZe531-7vFfi-47" value="" style="edgeStyle=orthogonalEdgeStyle;rounded=0;orthogonalLoop=1;jettySize=auto;html=1;entryX=0;entryY=0.5;entryDx=0;entryDy=0;" edge="1" parent="1" source="bwhybXAuOZe531-7vFfi-44">
          <mxGeometry relative="1" as="geometry">
            <mxPoint x="590" y="373" as="sourcePoint" />
            <mxPoint x="639.9999999999998" y="373" as="targetPoint" />
          </mxGeometry>
        </mxCell>
        <mxCell id="bwhybXAuOZe531-7vFfi-50" value="Admin Browses flights" style="text;html=1;strokeColor=none;fillColor=none;align=center;verticalAlign=middle;whiteSpace=wrap;rounded=0;" vertex="1" parent="1">
          <mxGeometry x="100" y="390" width="60" height="30" as="geometry" />
        </mxCell>
        <mxCell id="bwhybXAuOZe531-7vFfi-51" value="Admin adds information in a flight" style="text;html=1;strokeColor=none;fillColor=none;align=center;verticalAlign=middle;whiteSpace=wrap;rounded=0;" vertex="1" parent="1">
          <mxGeometry x="270" y="300" width="60" height="30" as="geometry" />
        </mxCell>
        <mxCell id="bwhybXAuOZe531-7vFfi-52" value="Admin Adds the Flight Destination" style="text;html=1;strokeColor=none;fillColor=none;align=center;verticalAlign=middle;whiteSpace=wrap;rounded=0;" vertex="1" parent="1">
          <mxGeometry x="430" y="403" width="60" height="30" as="geometry" />
        </mxCell>
        <mxCell id="bwhybXAuOZe531-7vFfi-29" value="" style="ellipse;whiteSpace=wrap;html=1;aspect=fixed;container=0;" vertex="1" parent="1">
          <mxGeometry x="640.0013071895424" y="358" width="30" height="30" as="geometry" />
        </mxCell>
        <mxCell id="bwhybXAuOZe531-7vFfi-30" value="" style="ellipse;whiteSpace=wrap;html=1;aspect=fixed;fillColor=#000000;container=0;" vertex="1" parent="1">
          <mxGeometry x="643.8811183732752" y="361.8798111837327" width="22.240377632534493" height="22.240377632534493" as="geometry" />
        </mxCell>
        <mxCell id="bwhybXAuOZe531-7vFfi-31" style="edgeStyle=orthogonalEdgeStyle;rounded=0;orthogonalLoop=1;jettySize=auto;html=1;exitX=0;exitY=0;exitDx=0;exitDy=0;entryX=0.5;entryY=0;entryDx=0;entryDy=0;" edge="1" parent="1" source="bwhybXAuOZe531-7vFfi-30" target="bwhybXAuOZe531-7vFfi-30">
          <mxGeometry relative="1" as="geometry" />
        </mxCell>
        <mxCell id="bwhybXAuOZe531-7vFfi-61" value="Delete Flight Destination" style="whiteSpace=wrap;html=1;rounded=1;" vertex="1" parent="1">
          <mxGeometry x="320" y="470" width="120" height="60" as="geometry" />
        </mxCell>
        <mxCell id="bwhybXAuOZe531-7vFfi-73" style="edgeStyle=orthogonalEdgeStyle;rounded=0;orthogonalLoop=1;jettySize=auto;html=1;exitX=1;exitY=0.5;exitDx=0;exitDy=0;entryX=0.5;entryY=1;entryDx=0;entryDy=0;" edge="1" parent="1" source="bwhybXAuOZe531-7vFfi-61" target="bwhybXAuOZe531-7vFfi-29">
          <mxGeometry relative="1" as="geometry">
            <mxPoint x="590" y="497" as="sourcePoint" />
            <mxPoint x="655" y="403" as="targetPoint" />
          </mxGeometry>
        </mxCell>
        <mxCell id="bwhybXAuOZe531-7vFfi-75" value="Admin deletes information in a flight" style="text;html=1;strokeColor=none;fillColor=none;align=center;verticalAlign=middle;whiteSpace=wrap;rounded=0;" vertex="1" parent="1">
          <mxGeometry x="220" y="420" width="60" height="30" as="geometry" />
        </mxCell>
        <mxCell id="bwhybXAuOZe531-7vFfi-76" value="Admin Deletes the Flight Destination" style="text;html=1;strokeColor=none;fillColor=none;align=center;verticalAlign=middle;whiteSpace=wrap;rounded=0;" vertex="1" parent="1">
          <mxGeometry x="270" y="535" width="60" height="30" as="geometry" />
        </mxCell>
        <mxCell id="bwhybXAuOZe531-7vFfi-82" value="" style="edgeStyle=none;curved=1;rounded=0;orthogonalLoop=1;jettySize=auto;html=1;fontSize=12;startSize=8;endSize=8;" edge="1" parent="1" source="bwhybXAuOZe531-7vFfi-77" target="bwhybXAuOZe531-7vFfi-80">
          <mxGeometry relative="1" as="geometry" />
        </mxCell>
        <mxCell id="bwhybXAuOZe531-7vFfi-77" value="Browse Flight List" style="rounded=1;whiteSpace=wrap;html=1;" vertex="1" parent="1">
          <mxGeometry x="160" y="343" width="120" height="60" as="geometry" />
        </mxCell>
        <mxCell id="bwhybXAuOZe531-7vFfi-80" value="Modify Flight Info" style="whiteSpace=wrap;html=1;rounded=1;" vertex="1" parent="1">
          <mxGeometry x="160" y="220" width="120" height="60" as="geometry" />
        </mxCell>
        <mxCell id="bwhybXAuOZe531-7vFfi-84" style="edgeStyle=orthogonalEdgeStyle;rounded=0;orthogonalLoop=1;jettySize=auto;html=1;exitX=1;exitY=0.5;exitDx=0;exitDy=0;" edge="1" parent="1" source="bwhybXAuOZe531-7vFfi-80">
          <mxGeometry relative="1" as="geometry">
            <mxPoint x="655" y="357" as="targetPoint" />
            <mxPoint x="550" y="273" as="sourcePoint" />
            <Array as="points">
              <mxPoint x="655" y="250" />
            </Array>
          </mxGeometry>
        </mxCell>
        <mxCell id="bwhybXAuOZe531-7vFfi-85" value="Admin modifies information in a flight" style="text;html=1;strokeColor=none;fillColor=none;align=center;verticalAlign=middle;whiteSpace=wrap;rounded=0;" vertex="1" parent="1">
          <mxGeometry x="290" y="200" width="60" height="30" as="geometry" />
        </mxCell>
      </root>
    </mxGraphModel>
  </diagram>
</mxfile>
